<?xml version="1.0" standalone="no"?>
<!DOCTYPE svg PUBLIC "-//W3C//DTD SVG 1.1//EN" "http://www.w3.org/Graphics/SVG/1.1/DTD/svg11.dtd" >
<svg xmlns="http://www.w3.org/2000/svg">
<metadata>Generated by IcoMoon</metadata>
<defs>
<font id="icomoon" horiz-adv-x="1024">
<font-face units-per-em="1024" ascent="960" descent="-64" />
<missing-glyph horiz-adv-x="1024" />
<glyph unicode="&#x20;" horiz-adv-x="512" d="" />
<glyph unicode="&#xe900;" d="M803.952 79.862c-2.564 73.834-40.796 169.4-102.274 255.634-19.838 27.828-60.384 79.614-108.152 112.504 47.766 32.89 88.312 84.674 108.152 112.504 61.476 86.236 99.71 181.8 102.274 255.634 0.012 0.344 0.018 0.688 0.018 1.034l0.030 112.82c0.002 7.958-3.158 15.59-8.784 21.218-5.626 5.626-13.258 8.79-21.216 8.79h-524c-7.962 0-15.598-3.166-21.226-8.798-5.626-5.634-8.784-13.272-8.774-21.236l0.126-112c0-0.336 0.006-0.672 0.018-1.006 2.564-73.858 40.77-169.562 102.2-256.008 19.856-27.944 60.456-79.964 108.276-112.952-47.82-32.988-88.422-85.008-108.276-112.952-61.428-86.448-99.634-182.152-102.2-256.008-0.012-0.334-0.018-0.67-0.018-1.006l-0.126-112c-0.008-7.962 3.148-15.602 8.774-21.236 5.628-5.632 13.264-8.798 21.226-8.798h524c7.958 0 15.59 3.162 21.216 8.79 5.626 5.626 8.786 13.26 8.784 21.218l-0.030 112.82c0 0.344-0.006 0.69-0.018 1.034z" />
<glyph unicode="&#xe901;" d="M803.952 79.862c-2.564 73.834-40.796 169.4-102.274 255.634-19.838 27.828-60.384 79.614-108.152 112.504 47.766 32.89 88.312 84.674 108.152 112.504 61.476 86.236 99.71 181.8 102.274 255.634 0.012 0.344 0.018 0.688 0.018 1.034l0.030 112.82c0.002 7.958-3.158 15.59-8.784 21.218-5.626 5.626-13.258 8.79-21.216 8.79h-262v-1024h262c7.958 0 15.59 3.162 21.216 8.79 5.626 5.626 8.786 13.26 8.784 21.218l-0.030 112.82c0 0.344-0.006 0.69-0.018 1.034z" />
<glyph unicode="&#xe902;" d="M743.97 78.276c-1.674 44.666-20.512 101.746-51.322 158.618h-150.648v250.060c29.682 15.232 69.428 50.312 110.822 108.378 6.752 9.472 13.206 19.092 19.334 28.796h-319.942c6.042-9.576 12.394-19.072 19.040-28.422 41.378-58.23 81.092-93.418 110.748-108.706v-250.106h-150.264c-30.98-57.194-49.93-114.602-51.61-159.452l-0.094-81.442h463.958z" />
<glyph unicode="&#xe903;" d="M652.822 595.332c6.752 9.472 13.206 19.092 19.334 28.796h-160.156v-628.128h231.992l-0.022 82.276c-1.674 44.666-20.512 101.746-51.322 158.618h-150.648v250.060c29.682 15.232 69.428 50.312 110.822 108.378z" />
<glyph unicode="&#xe904;" d="M806 780h-588c-49.626 0-90 40.374-90 90v60c0 16.568 13.432 30 30 30h708c16.568 0 30-13.432 30-30v-60c0-49.626-40.374-90-90-90z" />
<glyph unicode="&#xe905;" d="M866-64h-708c-16.568 0-30 13.432-30 30v60c0 49.626 40.374 90 90 90h588c49.626 0 90-40.374 90-90v-60c0-16.568-13.432-30-30-30z" />
<glyph unicode="&#xe906;" d="M866 960h-354v-180h294c49.626 0 90 40.374 90 90v60c0 16.568-13.432 30-30 30z" />
<glyph unicode="&#xe907;" d="M806 116h-294v-180h354c16.568 0 30 13.432 30 30v60c0 49.626-40.374 90-90 90z" />
<glyph unicode="&#xe908;" d="M937.632 873.632c-11.718 11.718-11.718 30.704 0 42.422l35.156 35.156c11.718 11.718 30.704 11.718 42.422 0s11.718-30.704 0-42.422l-35.156-35.156c-11.718-11.718-30.702-11.718-42.422 0z" />
<glyph unicode="&#xe909;" d="M760.79 696.79c-11.718 11.718-11.718 30.704 0 42.422l61.296 62.704c11.718 11.718 30.704 11.718 42.422 0s11.718-30.704 0-42.422l-61.296-62.704c-11.72-11.72-30.704-11.72-42.422 0z" />
<glyph unicode="&#xe90a;" d="M785.164-47.418l-43.74 87.452c-7.412 14.824-1.406 32.842 13.418 40.254 14.854 7.382 32.812 1.406 40.254-13.418l43.74-87.452c7.412-14.824 1.406-32.842-13.418-40.254-14.974-7.436-32.882-1.284-40.254 13.418z" />
<glyph unicode="&#xe90b;" d="M65.156 864.844c-7.676 0-15.352 2.93-21.21 8.79l-35.156 35.156c-11.718 11.718-11.718 30.704 0 42.422s30.704 11.718 42.422 0l35.156-35.156c11.718-11.718 11.718-30.704 0-42.422-5.86-5.86-13.536-8.79-21.212-8.79z" />
<glyph unicode="&#xe90c;" d="M226.56 691.018l-67.772 67.772c-11.718 11.718-11.718 30.704 0 42.422s30.704 11.718 42.422 0l67.772-67.772c11.718-11.718 11.718-30.704 0-42.422-11.718-11.72-30.702-11.72-42.422 0z" />
<glyph unicode="&#xe90d;" d="M211.97-64c-4.512 0-9.082 1.026-13.388 3.164-14.824 7.412-20.83 25.43-13.418 40.254l43.74 87.452c7.412 14.824 25.458 20.8 40.254 13.418 14.824-7.412 20.83-25.43 13.418-40.254l-43.74-87.452c-5.274-10.518-15.85-16.582-26.866-16.582z" />
<glyph unicode="&#xe90e;" d="M902.184 679.394l-158.79 158.79c-8.818 8.818-11.28 22.208-6.124 33.574 24.23 53.614 77.902 88.242 136.73 88.242 40.108 0 77.754-15.616 106.084-43.946 28.3-28.33 43.916-66.006 43.916-106.054 0-58.798-34.628-112.47-88.242-136.728-11.378-5.142-24.746-2.706-33.574 6.122z" />
<glyph unicode="&#xe90f;" d="M88.242 673.272c-53.614 24.228-88.242 77.9-88.242 136.728 0 40.108 15.616 77.754 43.946 106.084 28.3 28.3 65.946 43.916 106.054 43.916 58.828 0 112.5-34.628 136.728-88.242 5.156-11.368 2.696-24.756-6.124-33.574l-158.79-158.79c-8.604-8.606-21.84-11.384-33.572-6.122z" />
<glyph unicode="&#xe910;" d="M512 960c-49.802 0-90-40.198-90-90v-62c0-16.798 13.198-30 30-30h120c16.802 0 30 13.202 30 30v62c0 49.802-40.198 90-90 90z" />
<glyph unicode="&#xe911;" d="M602 870v-62c0-16.798-13.198-30-30-30h-60v182c49.802 0 90-40.198 90-90z" />
<glyph unicode="&#xe912;" d="M512 838c-248.4 0-450-201.6-450-450s201.6-452 450-452 450 203.6 450 452-201.6 450-450 450z" />
<glyph unicode="&#xe913;" d="M962 388c0-248.4-201.6-452-450-452v902c248.4 0 450-201.6 450-450z" />
<glyph unicode="&#xe914;" d="M512 718c-181.802 0-330-148.198-330-330 0-181.798 148.198-332 330-332s330 150.202 330 332c0 181.802-148.198 330-330 330z" />
<glyph unicode="&#xe915;" d="M842 388c0-181.798-148.198-332-330-332v662c181.802 0 330-148.198 330-330z" />
<glyph unicode="&#xe916;" d="M542 688v-60c0-16.798-13.198-30-30-30s-30 13.202-30 30v60c0 16.802 13.198 30 30 30s30-13.198 30-30z" />
<glyph unicode="&#xe917;" d="M542 688v-60c0-16.798-13.198-30-30-30v120c16.802 0 30-13.198 30-30z" />
<glyph unicode="&#xe918;" d="M542 146v-60c0-16.798-13.198-30-30-30s-30 13.202-30 30v60c0 16.802 13.198 30 30 30s30-13.198 30-30z" />
<glyph unicode="&#xe919;" d="M272 358h-60c-16.582 0-30 13.418-30 30s13.418 30 30 30h60c16.582 0 30-13.418 30-30s-13.418-30-30-30z" />
<glyph unicode="&#xe91a;" d="M812 358h-60c-16.582 0-30 13.418-30 30s13.418 30 30 30h60c16.582 0 30-13.418 30-30s-13.418-30-30-30z" />
<glyph unicode="&#xe91b;" d="M542 388v-120c0-16.798-13.198-30-30-30s-30 13.202-30 30v107.402l-110.998 111.6c-6.002 5.398-9.002 13.198-9.002 20.998s3 15.6 9.002 21.002c11.4 11.998 30.596 11.998 41.998 0l120-120c6-5.402 9-13.202 9-21.002z" />
<glyph unicode="&#xe91c;" d="M532.998 409.002c6.002-5.402 9.002-13.202 9.002-21.002v-120c0-16.798-13.198-30-30-30v192l20.998-20.998z" />
<glyph unicode="&#xe91d;" d="M542 146v-60c0-16.798-13.198-30-30-30v120c16.802 0 30-13.198 30-30z" />
<glyph unicode="&#xe91e;" glyph-name="world" d="M348.463 364.161c-1.1 0.744-19.479 17.279-24.042 23.136-4.465 5.922-13.073 7.475-17.57 9.837-4.53 2.33-34.429 12.199-41.612 7.086-7.086-5.113-16.858-8.219-20.644 0-3.721 8.284-5.598 9.449-10.84 10.613s-2.621 7.41-2.977 12.911c-0.421 5.533-3.398 11.422-7.151 7.475s-16.503-14.173-18.347-8.996c-1.877 5.080-10.905 26.275 2.621 30.255 13.461 3.883 24.721 1.586 28.119-1.974 3.365-3.495 5.954-13.364 10.128-12.167 4.142 1.197 1.877 8.704 3.365 14.917 1.488 6.245 11.293 14.529 15.726 23.136 4.498 8.704 5.242 13.784 10.84 16.147 5.695 2.33 8.672 5.468 13.914 9.416 5.274 3.948 13.461 7.442 16.535 9.449 3.009 2.006 16.47 8.672 20.936 7.475 4.498-1.197 7.475 0.388 3.754 7.054-3.754 6.666-8.607 26.728-15.726 35.723s-7.895 11.422-11.261 19.997c-3.365 8.704-7.151 16.147-9.772 10.257s-8.219-13.752-11.228-6.277c-2.977 7.475-2.621 7.119-6.375 10.613-3.721 3.527-6.763 4.336-11.972 5.922-5.242 1.586-10.484-0.421-10.128-5.501 0.356-5.113-4.918-14.205-1.488-20.903 3.365-6.698 6.375-13.752 1.844-16.114-4.465-2.33 0-16.503-4.465-16.082-4.498 0.356-6.73-0.421-6.73 4.724 0 5.048 2.233 12.911-6.051 12.911-8.219 0-13.105 4.304-19.091 8.672-6.019 4.304-10.872 1.974-9.384 11.746 1.488 9.869-0.712 13.364 5.986 18.865 6.763 5.468 8.284 8.672 13.137 6.277 4.886-2.362 8.219-2.362 11.293 0.388 2.977 2.75 8.575 1.618 8.575 5.113 0 3.527-6.375 3.527-5.598 9.384 0.712 5.986 3.754 2.783 4.854 12.62s-7.119 24.754-15.37 22.78c-8.284-1.941-20.968-13.364-23.589-8.219-2.653 5.080-7.895 2.75-18.023-0.809s-52.096 3.495-55.073 7.086c0 0-7.151 5.080-10.905 2.33-3.721-2.75-18.735-1.553-23.233-0.809-4.53 0.809-8.64-5.080-14.205-3.139-5.695 1.974-25.53 5.922-29.996 9.060-4.562 3.171-11.325 3.171-14.238 4.724-3.009 1.586-13.914 2.362-16.114-0.777-2.265-3.139-10.516-8.607-14.658-12.555-4.109-3.948-8.931-3.171-4.854-11.422 4.109-8.251-10.484-13.364-6.763-22.359s-0.744-33.361 14.238-38.085c15.014-4.724 27.375-7.475 35.982-0.453 8.672 7.119 21.777 7.119 25.886-0.744s6.375-19.641 19.835-26.307c13.461-6.698 25.11-25.951 24.366-34.526-0.712-8.672 0.421-37.309 14.205-53.811 13.914-16.503 28.151-46.401 29.219-39.283 1.133 7.086 1.133 14.173 4.174 9.028 2.945-5.113 10.84-20.839 23.589-23.589 12.781-2.75 19.156-3.527 23.977-8.284 4.854-4.724 9.028-7.442 14.238-9.837 5.242-2.33 17.991-9.449 20.612-14.14 2.653-4.724 1.521-11.002-1.133-18.088-2.589-7.086-5.598-14.14-1.877-20.839 3.786-6.666 11.649-25.919 18.056-30.222 6.375-4.368 12.684-11.422 11.196-21.227s-8.607-51.837-7.863-61.286c0.777-9.384-8.575-40.415-1.1-53.002 7.475-12.555 20.288-16.503 25.886-14.885 5.598 1.521 1.133 1.974-1.521 7.831-2.621 5.922-2.265 13.396 0.744 18.865 3.042 5.501 3.042 8.64 1.521 14.917s-0.744 9.837 2.977 14.529c3.786 4.724 19.512 17.279 24.398 22.78 4.821 5.501 35.626 43.23 39.736 46.369s13.461 10.613 16.503 22.359c3.009 11.746 13.849 34.947 6.375 40.868-7.507 5.922-35.238 10.29-36.37 11.066zM423.404 695.635c2.136 4.174 7.313 14.626 10.096 20.353h-118.754c1.424-6.31 6.569-29.737 5.598-39.218-1.133-11.002 2.265-7.086 5.242-11.422 3.009-4.336 2.265-11.034 0.388-16.082-1.909-5.113-3.009-16.535 3.042-29.899 5.954-13.331 13.073-30.222 19.059-31.031 6.051-0.744 4.53-9.416 8.672-6.245 4.109 3.171 4.821 10.16 8.251 20.418 3.365 10.16 3.365 17.667 12.005 22.78s32.584 21.583 37.826 27.504c5.274 5.922 11.261 8.251 9.384 18.444-1.941 10.225-3.786 18.476-0.809 24.398zM1008.080 649.267c-4.498 3.139-31.452 24.721-43.101 21.971-11.552-2.75-32.196 6.31-35.594 8.251-3.365 1.974-31.064 10.484-45.689 11.002-7.281 0.259-37.859 7.086-50.608 12.555-12.781 5.533-23.589 32.617-47.954 28.281-3.139-0.582-32.584-4.724-40.092-11.422-7.442-6.698-10.872-14.496-14.982-16.082s-16.114-0.777-16.114-6.698c0-5.889 4.142-23.977-0.712-20.418-4.886 3.527-9.772 11.778-11.972 5.468-2.233-6.31-6.083-9.804-8.284-7.442s-13.526 0-14.982-3.915c-1.521-3.948-16.114-12.943-22.456-14.173-6.375-1.165-9.028-4.304-12.393-5.889-3.365-1.553-28.896-13.364-33.717-9.028-4.886 4.304-6.375 1.553-9.384 0.777 0 0-8.996 1.586-14.593 8.64-5.663 7.054-6.763 4.724-13.137 11.39-6.342 6.666-7.863 13.331-14.205 10.581-6.342-2.718-33.329-30.578-43.845-43.166-10.452-12.587-29.219-25.53-19.868-34.526 9.416-9.028 14.238-7.863 15.402-12.943s2.265-10.613 3.754-12.587c1.488-2.006 10.452-9.028 14.982 0.388 4.562 9.449 5.242 16.114 10.484 14.529 5.242-1.553 6.342-5.113 3.689-12.167-2.621-7.119-4.465-18.088-13.461-17.667-8.963 0.388-18.703 5.889-21.745 4.692-2.977-1.165-4.789-3.915-8.219-6.666-3.365-2.75-13.882-15.661-21-17.667-7.086-1.974-15.694-0.356-10.84-6.245s11.972-18.865 5.242-18.444c-6.73 0.388-17.991 1.553-18.735-5.113s-3.721-10.613-2.233-15.305c1.488-4.724 6.375-13.784 12.328-10.613 6.083 3.171 17.667 6.245 20.644 13.364 3.009 7.086 6.407 14.885 13.882 14.496s25.498-10.193 24.333-13.752c-1.1-3.495-4.821-11.778-0.356-9.028 4.498 2.783 8.219 5.922 10.84 7.086 2.621 1.197 6.083-3.948 7.151-5.922 1.1-2.006 8.64-5.889 10.096 0.453 1.521 6.245 3.009 1.521 7.475-0.453 4.53-2.006 17.991-3.495 19.803-5.080 1.941-1.586 6.051-6.277 0.777-12.587-5.242-6.245-11.261-8.672-19.868-3.948-8.64 4.724-18.023-3.948-27.666 0.809-9.804 4.692-5.274 11.358-16.891 16.082-11.552 4.724-37.826-1.165-46.11-3.527-8.251-2.33-8.607-3.139-11.972-7.054-3.365-3.948-25.466-29.446-25.466-43.974 0-14.496 8.219-53.844 34.817-49.896 26.631 3.948 42.745 1.618 39.768-6.213-3.042-7.895-1.488-9.869 3.365-18.865 4.854-9.028 16.147-69.149 17.991-78.921 1.941-9.837-1.456-22.359 10.905-20.418 12.425 1.974 25.498 5.080 30.708 16.47 5.274 11.422 6.083 24.333 12.814 30.999 6.763 6.698 14.982 6.698 15.694 16.114 0.712 9.449-1.877 31.808 2.621 36.985 4.53 5.048 25.466 28.669 27.698 38.085 2.265 9.416 5.242 11.778-3.365 11.778s-23.233 1.133-27.407 8.996c-4.109 7.766-13.882 22.683-13.882 26.21 0 3.495 6.019 3.139 8.963-4.304 3.042-7.442 13.461-29.899 25.466-25.11 12.005 4.724 28.896 10.193 29.252 17.667 0.356 7.442-5.242 16.082-11.261 15.661-6.051-0.421-12.393 3.948-12.393 8.251s1.1 2.718 8.251 0c7.151-2.75 9.351-7.442 20.256-8.251 10.872-0.777 23.233-11.39 29.187-16.114 6.019-4.724 16.47-36.953 19.124-40.059 2.589-3.171 5.695-3.171 8.284 3.139 2.621 6.31 13.849 26.307 20.256 31.84 6.342 5.501 6.73 12.943 10.419 8.219 3.754-4.724 19.868-16.47 21-23.557s-0.744-22.392 2.621-17.667c3.365 4.724 6.019 14.496 8.931 10.16 3.042-4.336 3.042-11.002 10.128-5.889 7.151 5.048 19.512 7.054 12.781 18.056s-2.233 17.667 1.941 18.088c4.109 0.421 32.229 5.501 32.973 20.839 0.744 15.305-9.772 23.557-4.789 31.42 4.789 7.863 11.94 14.917 13.461 10.225 1.488-4.724-3.754-20.030 2.977-17.667 6.763 2.33 14.626 2.33 14.626 7.086s-1.521 16.535 1.521 19.641c3.009 3.139 25.077 23.913 27.698 32.164 2.621 8.284 7.507 15.338 3.365 21.583-4.142 6.277-11.228 4.368-5.63 12.167 5.63 7.863 15.014 15.144 22.133 15.726 22.748 2.006 16.341-26.145 16.729-32.423 0.421-6.277 0.421-22.003 3.754-14.14 3.365 7.831 7.281 17.506 14.043 24.171 6.763 6.633 10.484 11.002 10.905 16.858 0.388 5.889 0.68 7.863 7.119 11.002 6.375 3.171 34.461 14.173 37.082 21.583 2.621 7.442-3.365 14.173 3.365 13.72 6.73-0.356 13.105-7.798 16.503-3.883 3.365 3.883 10.872 10.969 10.484 14.917-0.453 4.077-11.325 13.105-15.888 16.244zM887.093 517.343c-2.265-5.145-3.365-5.954-6.73-16.567-3.43-10.549-2.297-7.798-5.695-14.464-3.365-6.698-8.931-7.442-14.561-11.811-5.695-4.336-7.183-12.943-7.183-12.943-4.854-6.666 19.868 9.449 28.475 14.529 8.64 5.113 6.407 11.002 7.151 19.253 0.744 8.284 3.074 9.449 6.73 12.976 3.721 3.527 0.744 10.613-1.035 15.694-1.941 5.080-4.951-1.618-7.151-6.666zM810.243 338.986c2.621 2.006 0.712 6.277 4.821 5.533 4.142-0.777 7.863-3.203 12.814-0.453 4.821 2.783 8.963 1.618 8.219 6.31-0.712 4.692 0 10.969-1.1 14.885-1.133 3.948-7.863 5.145-12.749 0.777s-11.584-11.034-11.584-8.64c0 2.33 2.945 8.64 1.456 12.555-1.456 3.915 0.744 7.442-6.73 4.336-7.507-3.171-11.617-2.362-14.238-6.698-2.589-4.368-5.63-11.778-10.096-7.086s-17.635 14.496-17.635 14.496c-1.068 1.197-16.050 13.396-10.808 5.113 5.21-8.251 13.105-22.392 16.858-27.472 3.689-5.113 7.831-11.034 12.361-8.284 4.498 2.783 5.242 3.527 11.261 0 5.857-3.398 14.529-7.345 17.15-5.371zM902.075 350.020c-7.183 3.139-4.174 5.889-12.814 7.41s-15.694 0-18.023 1.553c-2.265 1.586-13.461 5.501-11.972 0 1.521-5.533 11.617-7.054 14.238-8.607 2.621-1.586-3.754-5.145 1.068-7.863 4.854-2.718 8.284-7.863 14.626-6.277 6.375 1.618 8.64-1.974 13.817-2.75 5.274-0.744 10.516 0.777 8.348 3.203-2.265 2.297-3.721 5.501-3.365 8.219 0.388 2.75 1.165 1.941-5.922 5.113zM898.322 315.041c-2.621 7.863-8.996 22.327-10.452 15.305-1.521-7.054-11.617-12.134-15.435-11.746-3.43 0.388-1.488 3.915-1.488 7.119 0 3.139-1.974 6.245-10.516 3.883-8.672-2.33-10.452-10.581-12.781-9.837-2.2 0.777-8.251 2.362-11.94-1.974-3.754-4.336-7.183-12.587-11.617-14.173-4.53-1.586-19.544-3.495-19.544-9.837 0-6.277 3.786-15.694 3.398-20.806s-7.216-16.858 1.877-20.45c5.242-2.039 8.963-2.33 15.046 0.777 5.986 3.139 31.808 11.39 35.238 8.672 3.365-2.75 8.801-9.19 11.228-10.581 4.757-2.848 6.051-9.416 12.425-11.002 6.277-1.586 11.228-2.33 13.817-2.33 2.653 0 11.972 3.139 14.238 8.64 2.265 5.533 6.375 18.476 8.251 24.754 1.974 6.277 3.721 13.331-1.877 18.865-5.598 5.468-17.247 16.858-19.868 24.721z" />
</font>
</defs>
</svg>
